<?xml version="1.0" standalone="no"?>
<!DOCTYPE svg PUBLIC "-//W3C//DTD SVG 20010904//EN"
 "http://www.w3.org/TR/2001/REC-SVG-20010904/DTD/svg10.dtd">
<svg version="1.0" xmlns="http://www.w3.org/2000/svg"
 width="256pt" height="256pt" viewBox="0 0 256 256"
 preserveAspectRatio="xMidYMid meet">

<g transform="translate(0, 256) scale(0.1, -0.1)"
fill="var(--ui-color-primary, #41b883)" stroke="none">
<path d="M748 2400 c-146 -25 -267 -89 -379 -200 -71 -71 -94 -101 -133 -180
-78 -158 -76 -129 -76 -1047 l0 -813 510 0 511 0 -3 98 -3 97 -85 7 c-116 9
-205 39 -294 99 -85 56 -138 112 -204 214 -92 139 -132 289 -132 485 0 325
114 604 339 831 118 119 241 196 404 252 12 5 17 17 17 49 0 24 3 60 6 81 l7
37 -219 -1 c-121 -1 -240 -5 -266 -9z"/>
<path d="M1475 2350 c-4 -33 -7 -63 -6 -67 0 -4 37 -15 82 -25 266 -57 470
-283 534 -594 28 -137 19 -363 -21 -504 -97 -345 -364 -655 -650 -755 l-69
-24 -3 -112 -3 -111 238 5 c267 5 304 12 440 79 156 76 289 228 349 399 l29
84 3 843 3 842 -460 0 -459 0 -7 -60z"/>
<path d="M1436 2053 c-3 -10 -12 -99 -20 -198 -48 -579 -60 -747 -72 -1089
l-7 -188 24 7 c45 13 154 77 217 127 76 61 154 151 216 250 261 420 134 969
-252 1088 -79 25 -99 25 -106 3z"/>
<path d="M1125 2007 c-375 -202 -578 -642 -474 -1030 37 -139 174 -313 291
-369 63 -31 157 -58 202 -58 l29 0 -7 248 c-5 182 -2 374 14 732 23 566 22
510 13 510 -5 0 -35 -15 -68 -33z"/>
</g>
</svg>
